<svg xmlns="http://www.w3.org/2000/svg" style="display:none">
  <!-- dashboard -->
  <symbol id="icon-dashboard" viewBox="0 0 24 24" fill="none" stroke="currentColor" stroke-width="2">
    <rect x="3" y="3" width="7" height="7" rx="1"/><rect x="14" y="3" width="7" height="7" rx="1"/>
    <rect x="3" y="14" width="7" height="7" rx="1"/><rect x="14" y="14" width="7" height="7" rx="1"/>
  </symbol>
  <!-- requests -->
  <symbol id="icon-requests" viewBox="0 0 24 24" fill="none" stroke="currentColor" stroke-width="2">
    <path d="M12 9v4m0 4h.01M10.29 3.86L1.82 18a2 2 0 001.71 3h16.94a2 2 0 001.71-3L13.71 3.86a2 2 0 00-3.42 0z"/>
  </symbol>
  <!-- equipment -->
  <symbol id="icon-equipment" viewBox="0 0 24 24" fill="none" stroke="currentColor" stroke-width="2">
    <circle cx="12" cy="12" r="3"/>
    <path d="M19.07 4.93l-1.41 1.41M4.93 4.93l1.41 1.41M12 2v2M12 20v2M2 12h2M20 12h2M19.07 19.07l-1.41-1.41M4.93 19.07l1.41-1.41"/>
  </symbol>
  <!-- calendar / pms -->
  <symbol id="icon-pms" viewBox="0 0 24 24" fill="none" stroke="currentColor" stroke-width="2">
    <rect x="3" y="4" width="18" height="18" rx="2"/>
    <line x1="16" y1="2" x2="16" y2="6"/><line x1="8" y1="2" x2="8" y2="6"/>
    <line x1="3" y1="10" x2="21" y2="10"/>
  </symbol>
  <!-- preferences / settings -->
  <symbol id="icon-preferences" viewBox="0 0 24 24" fill="none" stroke="currentColor" stroke-width="2">
    <circle cx="12" cy="12" r="3"/>
    <path d="M19.07 4.93a1 1 0 000 1.41l1.41 1.42a1 1 0 001.41 0 9 9 0 10-2.82 2.82 1 1 0 000-1.41l-1.41-1.42a1 1 0 00-1.41 0A7 7 0 1119.07 4.93z"/>
  </symbol>
  <!-- facilities -->
  <symbol id="icon-facilities" viewBox="0 0 24 24" fill="none" stroke="currentColor" stroke-width="2">
    <path d="M3 9l9-7 9 7v11a2 2 0 01-2 2H5a2 2 0 01-2-2z"/>
    <polyline points="9 22 9 12 15 12 15 22"/>
  </symbol>
  <!-- activities -->
  <symbol id="icon-activities" viewBox="0 0 24 24" fill="none" stroke="currentColor" stroke-width="2">
    <path d="M9 5H7a2 2 0 00-2 2v12a2 2 0 002 2h10a2 2 0 002-2V7a2 2 0 00-2-2h-2"/>
    <rect x="9" y="3" width="6" height="4" rx="1"/>
    <line x1="9" y1="12" x2="15" y2="12"/><line x1="9" y1="16" x2="12" y2="16"/>
  </symbol>
  <!-- pms-admin / file -->
  <symbol id="icon-pms-admin" viewBox="0 0 24 24" fill="none" stroke="currentColor" stroke-width="2">
    <path d="M14 2H6a2 2 0 00-2 2v16a2 2 0 002 2h12a2 2 0 002-2V8z"/>
    <polyline points="14 2 14 8 20 8"/>
    <line x1="9" y1="13" x2="15" y2="13"/><line x1="9" y1="17" x2="15" y2="17"/>
  </symbol>
  <!-- users -->
  <symbol id="icon-users" viewBox="0 0 24 24" fill="none" stroke="currentColor" stroke-width="2">
    <path d="M17 21v-2a4 4 0 00-4-4H5a4 4 0 00-4 4v2"/>
    <circle cx="9" cy="7" r="4"/>
    <path d="M23 21v-2a4 4 0 00-3-3.87"/>
    <path d="M16 3.13a4 4 0 010 7.75"/>
  </symbol>
  <!-- company -->
  <symbol id="icon-company" viewBox="0 0 24 24" fill="none" stroke="currentColor" stroke-width="2">
    <rect x="2" y="7" width="20" height="14" rx="2"/>
    <path d="M16 7V5a2 2 0 00-2-2h-4a2 2 0 00-2 2v2"/>
    <line x1="12" y1="12" x2="12" y2="16"/><line x1="10" y1="14" x2="14" y2="14"/>
  </symbol>
  <!-- reports -->
  <symbol id="icon-reports" viewBox="0 0 24 24" fill="none" stroke="currentColor" stroke-width="2">
    <line x1="18" y1="20" x2="18" y2="10"/><line x1="12" y1="20" x2="12" y2="4"/>
    <line x1="6" y1="20" x2="6" y2="14"/>
  </symbol>
  <!-- logout -->
  <symbol id="icon-logout" viewBox="0 0 24 24" fill="none" stroke="currentColor" stroke-width="2">
    <path d="M9 21H5a2 2 0 01-2-2V5a2 2 0 012-2h4"/>
    <polyline points="16 17 21 12 16 7"/>
    <line x1="21" y1="12" x2="9" y2="12"/>
  </symbol>
  <!-- more (dots) -->
  <symbol id="icon-more" viewBox="0 0 24 24" fill="none" stroke="currentColor" stroke-width="2">
    <circle cx="12" cy="5" r="1"/><circle cx="12" cy="12" r="1"/><circle cx="12" cy="19" r="1"/>
  </symbol>
  <!-- plus -->
  <symbol id="icon-plus" viewBox="0 0 24 24" fill="none" stroke="currentColor" stroke-width="2.5">
    <line x1="12" y1="5" x2="12" y2="19"/><line x1="5" y1="12" x2="19" y2="12"/>
  </symbol>
  <!-- refresh -->
  <symbol id="icon-refresh" viewBox="0 0 24 24" fill="none" stroke="currentColor" stroke-width="2">
    <polyline points="23 4 23 10 17 10"/>
    <path d="M20.49 15a9 9 0 11-2.12-9.36L23 10"/>
  </symbol>
  <!-- edit / pencil -->
  <symbol id="icon-edit" viewBox="0 0 24 24" fill="none" stroke="currentColor" stroke-width="2">
    <path d="M11 4H4a2 2 0 00-2 2v14a2 2 0 002 2h14a2 2 0 002-2v-7"/>
    <path d="M18.5 2.5a2.121 2.121 0 013 3L12 15l-4 1 1-4 9.5-9.5z"/>
  </symbol>
  <!-- trash -->
  <symbol id="icon-trash" viewBox="0 0 24 24" fill="none" stroke="currentColor" stroke-width="2">
    <polyline points="3 6 5 6 21 6"/>
    <path d="M19 6l-1 14H6L5 6"/><path d="M10 11v6M14 11v6"/>
    <path d="M9 6V4a1 1 0 011-1h4a1 1 0 011 1v2"/>
  </symbol>
  <!-- close / x -->
  <symbol id="icon-close" viewBox="0 0 24 24" fill="none" stroke="currentColor" stroke-width="2">
    <line x1="18" y1="6" x2="6" y2="18"/><line x1="6" y1="6" x2="18" y2="18"/>
  </symbol>
  <!-- check -->
  <symbol id="icon-check" viewBox="0 0 24 24" fill="none" stroke="currentColor" stroke-width="2.5">
    <polyline points="20 6 9 17 4 12"/>
  </symbol>
  <!-- sign-in -->
  <symbol id="icon-signin" viewBox="0 0 24 24" fill="none" stroke="currentColor" stroke-width="2">
    <path d="M15 3h4a2 2 0 012 2v14a2 2 0 01-2 2h-4"/>
    <polyline points="10 17 15 12 10 7"/>
    <line x1="15" y1="12" x2="3" y2="12"/>
  </symbol>
  <!-- user-add -->
  <symbol id="icon-user-add" viewBox="0 0 24 24" fill="none" stroke="currentColor" stroke-width="2">
    <path d="M16 21v-2a4 4 0 00-4-4H5a4 4 0 00-4 4v2"/>
    <circle cx="8.5" cy="7" r="4"/>
    <line x1="20" y1="8" x2="20" y2="14"/><line x1="23" y1="11" x2="17" y2="11"/>
  </symbol>
  <!-- wrench (tekora brand icon) -->
  <symbol id="icon-brand" viewBox="0 0 24 24" fill="none" stroke="currentColor" stroke-width="2.5">
    <path d="M14.7 6.3a1 1 0 000 1.4l1.6 1.6a1 1 0 001.4 0l3.77-3.77a6 6 0 01-7.94 7.94l-6.91 6.91a2.12 2.12 0 01-3-3l6.91-6.91a6 6 0 017.94-7.94l-3.76 3.76z"/>
  </symbol>
  <!-- alert -->
  <symbol id="icon-alert" viewBox="0 0 24 24" fill="none" stroke="currentColor" stroke-width="2">
    <path d="M10.29 3.86L1.82 18a2 2 0 001.71 3h16.94a2 2 0 001.71-3L13.71 3.86a2 2 0 00-3.42 0z"/>
    <line x1="12" y1="9" x2="12" y2="13"/><line x1="12" y1="17" x2="12.01" y2="17"/>
  </symbol>
  <!-- info -->
  <symbol id="icon-info" viewBox="0 0 24 24" fill="none" stroke="currentColor" stroke-width="2">
    <circle cx="12" cy="12" r="10"/>
    <line x1="12" y1="8" x2="12" y2="12"/><line x1="12" y1="16" x2="12.01" y2="16"/>
  </symbol>
  <!-- bulk calendar -->
  <symbol id="icon-bulk-cal" viewBox="0 0 24 24" fill="none" stroke="currentColor" stroke-width="2">
    <rect x="3" y="4" width="18" height="18" rx="2"/>
    <line x1="16" y1="2" x2="16" y2="6"/><line x1="8" y1="2" x2="8" y2="6"/>
    <line x1="3" y1="10" x2="21" y2="10"/>
    <line x1="8" y1="14" x2="16" y2="14"/><line x1="8" y1="18" x2="12" y2="18"/>
  </symbol>
</svg>
